<?xml version="1.0" standalone="no"?><!DOCTYPE svg PUBLIC "-//W3C//DTD SVG 1.1//EN" "http://www.w3.org/Graphics/SVG/1.1/DTD/svg11.dtd"><svg t="1603984114070" class="icon" viewBox="0 0 1024 1024" version="1.1" xmlns="http://www.w3.org/2000/svg" p-id="3691" xmlns:xlink="http://www.w3.org/1999/xlink" width="200" height="200"><defs><style type="text/css"></style></defs><path d="M511.685845 960.492594c-119.583562 0-232.010121-46.569642-316.568982-131.12748C110.558002 744.806253 63.989383 632.380718 63.989383 512.796132c0-119.583562 46.568618-232.010121 131.12748-316.568982C279.675724 111.668289 392.102283 65.09967 511.685845 65.09967c119.584586 0 232.010121 46.568618 316.568982 131.12748 84.557838 84.559884 131.12748 196.98542 131.12748 316.568982 0 119.584586-46.569642 232.010121-131.12748 316.568982-84.558861 84.558861-196.984397 131.12748-316.568982 131.12748z m0-850.094228c-221.883483 0-402.39879 180.515307-402.39879 402.39879 0 221.88246 180.515307 402.39879 402.39879 402.398789 221.88246 0 402.39879-180.515307 402.39879-402.398789 0-221.884506-180.51633-402.39879-402.39879-402.39879z" p-id="3692"></path></svg>