<?xml version="1.0" standalone="no"?><!DOCTYPE svg PUBLIC "-//W3C//DTD SVG 1.1//EN" "http://www.w3.org/Graphics/SVG/1.1/DTD/svg11.dtd"><svg t="1602463709260" class="icon" viewBox="0 0 1024 1024" version="1.1" xmlns="http://www.w3.org/2000/svg" p-id="3372" xmlns:xlink="http://www.w3.org/1999/xlink" width="200" height="200"><defs><style type="text/css"></style></defs><path d="M508.937188 56.662014c8.167498 0 16.334995 2.552343 22.971087 6.636092 49.004985 37.774676 102.604187 68.402792 159.77667 91.884347l4.594218 1.531405c57.682951 17.355932 116.897308 31.138584 174.06979 39.816551 18.376869 3.57328 32.159521 19.397807 33.180459 37.264207 3.57328 93.926221 2.552343 189.383848-3.062812 283.820539-20.418744 166.412762-98.520439 273.611167-161.308076 334.356929-85.758724 83.206381-174.069791 112.303091-228.179461 112.30309-123.022931 0-395.613161-224.606181-399.696909-446.149551V234.815553c1.020937-17.866401 13.782652-32.159521 29.607178-34.201395 60.235294-5.615155 119.449651-20.418744 175.601196-43.389831 60.745763-18.376869 117.918245-50.025922 163.860419-90.86341 8.677966-6.125623 18.376869-9.698903 28.586241-9.698903m0-56.662014C486.47657 0 464.015952 7.657029 445.639083 22.460618c-42.368893 37.264207-92.905284 65.33998-147.014955 81.164507-51.557328 21.439681-106.177468 35.222333-161.818545 40.327019-44.921236 5.615155-78.612164 42.879362-80.654038 88.311066v285.351945c4.083749 249.619143 294.540379 503.322034 456.358924 503.322033 157.734796 0 407.864407-176.622134 446.149551-498.217348 5.615155-96.989033 6.636092-193.978066 3.062812-290.967098-3.57328-44.921236-36.24327-82.185444-80.14357-90.86341-57.172483-8.677966-113.324028-21.95015-168.454636-38.285145-53.088734-21.439681-103.114656-50.025922-148.035892-85.248255-17.355932-11.740778-36.753739-17.355932-56.151546-17.355932z" fill="#B3B3B3" p-id="3373"></path><path d="M750.899302 423.688933l-280.247258 220.011964c-12.761715 10.209372-31.649053 11.740778-46.452642 3.57328l-7.146561-5.104685-153.140578-134.253241c-9.188435-8.677966-12.761715-20.418744-8.677966-31.138584s14.803589-19.397807 28.586241-21.95015c13.272183-2.552343 27.565304 1.020937 36.753739 9.698904l126.085743 110.771685 252.171485-198.572283c10.209372-7.657029 24.502493-10.209372 37.774676-7.146561 13.272183 3.57328 22.971087 12.251246 26.033899 23.481556s-1.531406 22.971087-11.740778 30.628115" fill="#B3B3B3" p-id="3374"></path></svg>