<?xml version="1.0" standalone="no"?><!DOCTYPE svg PUBLIC "-//W3C//DTD SVG 1.1//EN" "http://www.w3.org/Graphics/SVG/1.1/DTD/svg11.dtd"><svg t="1602464209539" class="icon" viewBox="0 0 1024 1024" version="1.1" xmlns="http://www.w3.org/2000/svg" p-id="1132" xmlns:xlink="http://www.w3.org/1999/xlink" width="200" height="200"><defs><style type="text/css"></style></defs><path d="M525.1 649.7c0.8 1.7 1.7 3.4 2.5 5.1-0.8-1.7-1.7-3.4-2.5-5.1zM541.6 679.6c1.4 2.2 2.8 4.4 4.3 6.6-1.5-2.2-2.9-4.4-4.3-6.6zM535.7 669.9c1.2 2 2.4 4.1 3.7 6.1-1.3-2-2.5-4.1-3.7-6.1zM733 475.1c8.4-5.3 17.4-9.6 26.9-12.9-9.5 3.3-18.5 7.6-26.9 12.9zM718.3 485.8c3.7-3.2 7.7-6.1 11.8-8.8-4.1 2.8-8.1 5.7-11.8 8.8zM763.1 461.2c4.9-1.5 9.8-2.8 14.9-3.8-5.1 0.9-10 2.2-14.9 3.8zM530.2 659.9c1 1.9 2.1 3.8 3.2 5.8-1.1-1.9-2.2-3.9-3.2-5.8zM510.4 603.7c0.2 1.4 0.5 2.7 0.8 4.1-0.3-1.4-0.6-2.7-0.8-4.1zM509 593.1c0.1 1.2 0.3 2.3 0.4 3.5-0.1-1.2-0.3-2.3-0.4-3.5zM512.5 614.3c0.3 1.4 0.7 2.9 1.1 4.3-0.4-1.4-0.7-2.9-1.1-4.3zM519.3 635.9c0.5 1.3 1 2.7 1.5 4-0.5-1.4-1-2.7-1.5-4zM515.5 625c0.4 1.4 0.9 2.9 1.4 4.3-0.5-1.4-0.9-2.9-1.4-4.3z" fill="#FFA81C" p-id="1133"></path><path d="M695.1 928.2H338.6c-46.5 0-84.3-37.8-84.3-84.3V182.5c0-46.5 37.8-84.3 84.3-84.3H695c46.5 0 84.3 37.8 84.3 84.3V844c0.1 46.4-37.7 84.2-84.2 84.2zM338.6 149c-18.4 0-33.5 15-33.5 33.5V844c0 18.4 15 33.5 33.5 33.5H695c18.4 0 33.5-15 33.5-33.5V182.5c0-18.4-15-33.5-33.5-33.5H338.6z" fill="#B3B3B3" p-id="1134"></path><path d="M590.2 183H443.6c-7 0-12.8 5.8-12.8 12.8 0 7 5.8 12.8 12.8 12.8h146.5c7 0 12.8-5.8 12.8-12.8 0-7-5.7-12.8-12.7-12.8z" fill="#B3B3B3" p-id="1135"></path><path d="M486.9 830.3c0 10.7 5.7 20.6 15 25.9 9.3 5.3 20.7 5.3 29.9 0 9.3-5.3 15-15.2 15-25.9 0-16.5-13.4-29.9-29.9-29.9-16.6-0.1-30 13.3-30 29.9z" fill="#B3B3B3" p-id="1136"></path></svg>